# xmcd
#
# Track frame offsets: 
#        150
#        11352
#        32507
#        46842
#        61847
#        80052
#        99179
#        109912
#        128062
#        136317
#        151604
#
# Disc length: 2209 seconds
#
# Revision: 0
# Processed by: cddbd v1.5.2PL0 Copyright (c) Steve Scherf et al.
# Submitted via: ExactAudioCopy v1.3
#
DISCID=78089f0b
DTITLE=Screamin' John and TD Lind - Mr. Little Big Man
DYEAR=2019
DGENRE=Blues
TTITLE0=Rollin' Joanna
TTITLE1=The Letter
TTITLE2=Shame, Shame, Shame
TTITLE3=Jelly Roll
TTITLE4=Little Big Man
TTITLE5=All Your Love
TTITLE6=Way Past Midnight
TTITLE7=Cold Stone and Emptiness
TTITLE8=Gonna Drag Ya
TTITLE9=Goodnight Irene
TTITLE10=Reaper's Knockin'
EXTD=
EXTT0=
EXTT1=
EXTT2=
EXTT3=
EXTT4=
EXTT5=
EXTT6=
EXTT7=
EXTT8=
EXTT9=
EXTT10=
PLAYORDER=
